<mxfile host="65bd71144e">
    <diagram id="cSNAQo7zBE5ASwPmJZnW" name="ページ1">
        <mxGraphModel dx="1563" dy="684" grid="1" gridSize="10" guides="1" tooltips="1" connect="1" arrows="1" fold="1" page="1" pageScale="1" pageWidth="827" pageHeight="1169" math="0" shadow="0">
            <root>
                <mxCell id="0"/>
                <mxCell id="1" parent="0"/>
                <mxCell id="70" value="" style="rounded=1;whiteSpace=wrap;html=1;container=0;collapsible=0;absoluteArcSize=1;arcSize=20;childLayout=stackLayout;horizontal=1;horizontalStack=0;resizeParent=1;resizeParentMax=0;resizeLast=0;" vertex="1" parent="1">
                    <mxGeometry x="320" y="80" width="370" height="580" as="geometry"/>
                </mxCell>
                <mxCell id="72" value="" style="shape=mxgraph.bpmn.task;arcSize=0;taskMarker=abstract;part=1;isLoopSub=1;isLoopStandard=1;connectable=0;whiteSpace=wrap;html=1;" vertex="1" parent="1">
                    <mxGeometry x="320" y="100" width="370" height="540" as="geometry"/>
                </mxCell>
                <mxCell id="27" value="tcp stream" style="shape=cylinder3;whiteSpace=wrap;html=1;boundedLbl=1;backgroundOutline=1;size=15;rotation=90;horizontal=0;align=center;verticalAlign=top;" vertex="1" parent="1">
                    <mxGeometry x="-119.68" y="344.07" width="192.5" height="219.37" as="geometry"/>
                </mxCell>
                <mxCell id="26" value="" style="shape=flexArrow;endArrow=classic;html=1;" edge="1" parent="1">
                    <mxGeometry width="50" height="50" relative="1" as="geometry">
                        <mxPoint x="-181.25" y="410" as="sourcePoint"/>
                        <mxPoint x="130" y="410" as="targetPoint"/>
                    </mxGeometry>
                </mxCell>
                <mxCell id="28" value="" style="shape=flexArrow;endArrow=classic;html=1;" edge="1" parent="1">
                    <mxGeometry width="50" height="50" relative="1" as="geometry">
                        <mxPoint x="132.19" y="500" as="sourcePoint"/>
                        <mxPoint x="-179.06" y="500" as="targetPoint"/>
                    </mxGeometry>
                </mxCell>
                <mxCell id="80" style="edgeStyle=none;html=1;entryX=0;entryY=0.5;entryDx=0;entryDy=0;strokeWidth=3;" edge="1" parent="1" source="29" target="65">
                    <mxGeometry relative="1" as="geometry"/>
                </mxCell>
                <mxCell id="29" value="read" style="shape=process;whiteSpace=wrap;html=1;backgroundOutline=1;" vertex="1" parent="1">
                    <mxGeometry x="150" y="370" width="120" height="60" as="geometry"/>
                </mxCell>
                <mxCell id="30" value="write" style="shape=process;whiteSpace=wrap;html=1;backgroundOutline=1;" vertex="1" parent="1">
                    <mxGeometry x="150" y="470" width="120" height="60" as="geometry"/>
                </mxCell>
                <mxCell id="56" value="" style="group" vertex="1" connectable="0" parent="1">
                    <mxGeometry x="780" y="180" width="150" height="100" as="geometry"/>
                </mxCell>
                <mxCell id="38" value="" style="points=[[0.25,0,0],[0.5,0,0],[0.75,0,0],[1,0.25,0],[1,0.5,0],[1,0.75,0],[0.75,1,0],[0.5,1,0],[0.25,1,0],[0,0.75,0],[0,0.5,0],[0,0.25,0]];shape=mxgraph.bpmn.task;whiteSpace=wrap;rectStyle=rounded;size=10;html=1;taskMarker=abstract;movable=1;resizable=1;rotatable=1;deletable=1;editable=1;connectable=1;" vertex="1" parent="56">
                    <mxGeometry y="20" width="150" height="80" as="geometry"/>
                </mxCell>
                <mxCell id="42" value="Broker" style="shape=process;whiteSpace=wrap;html=1;backgroundOutline=1;movable=1;resizable=1;rotatable=1;deletable=1;editable=1;connectable=1;" vertex="1" parent="56">
                    <mxGeometry x="15" width="120" height="40" as="geometry"/>
                </mxCell>
                <mxCell id="57" style="edgeStyle=none;html=1;exitX=0;exitY=0.5;exitDx=0;exitDy=0;exitPerimeter=0;entryX=1;entryY=0.5;entryDx=0;entryDy=0;strokeWidth=3;" edge="1" parent="1" source="38">
                    <mxGeometry relative="1" as="geometry">
                        <mxPoint x="650" y="380" as="targetPoint"/>
                    </mxGeometry>
                </mxCell>
                <mxCell id="31" value="Main" style="shape=process;whiteSpace=wrap;html=1;backgroundOutline=1;movable=1;resizable=1;rotatable=1;deletable=1;editable=1;connectable=1;" vertex="1" parent="1">
                    <mxGeometry x="390" y="20" width="240" height="40" as="geometry"/>
                </mxCell>
                <mxCell id="68" value="" style="edgeStyle=none;html=1;" edge="1" parent="1" source="60" target="67">
                    <mxGeometry relative="1" as="geometry"/>
                </mxCell>
                <mxCell id="60" value="どちらか早く受信したメッセージ" style="rhombus;whiteSpace=wrap;html=1;" vertex="1" parent="1">
                    <mxGeometry x="400" y="260" width="220" height="80" as="geometry"/>
                </mxCell>
                <mxCell id="74" style="edgeStyle=none;html=1;" edge="1" parent="1" source="65">
                    <mxGeometry relative="1" as="geometry">
                        <mxPoint x="430" y="640" as="targetPoint"/>
                    </mxGeometry>
                </mxCell>
                <mxCell id="65" value="リモートから&lt;br&gt;データを受信" style="whiteSpace=wrap;html=1;" vertex="1" parent="1">
                    <mxGeometry x="370" y="350" width="120" height="60" as="geometry"/>
                </mxCell>
                <mxCell id="66" value="" style="edgeStyle=none;html=1;" edge="1" parent="1" source="60" target="65">
                    <mxGeometry relative="1" as="geometry"/>
                </mxCell>
                <mxCell id="75" style="edgeStyle=none;html=1;" edge="1" parent="1" source="67">
                    <mxGeometry relative="1" as="geometry">
                        <mxPoint x="590" y="450" as="targetPoint"/>
                    </mxGeometry>
                </mxCell>
                <mxCell id="67" value="ブローカーから&lt;br&gt;メッセージを受信" style="whiteSpace=wrap;html=1;" vertex="1" parent="1">
                    <mxGeometry x="530" y="350" width="120" height="60" as="geometry"/>
                </mxCell>
                <mxCell id="71" value="" style="whiteSpace=wrap;connectable=0;html=1;shape=mxgraph.basic.rect;size=10;rectStyle=rounded;bottomRightStyle=square;bottomLeftStyle=square;part=1;" vertex="1" parent="1">
                    <mxGeometry x="320" y="80" width="370" height="20" as="geometry"/>
                </mxCell>
                <mxCell id="73" value="" style="whiteSpace=wrap;connectable=0;html=1;shape=mxgraph.basic.rect;size=10;rectStyle=rounded;topRightStyle=square;topLeftStyle=square;fillColor=#C0C0C0;part=1;" vertex="1" parent="1">
                    <mxGeometry x="320" y="640" width="370" height="20" as="geometry"/>
                </mxCell>
                <mxCell id="77" style="edgeStyle=none;html=1;entryX=1;entryY=0.5;entryDx=0;entryDy=0;strokeWidth=3;" edge="1" parent="1" source="76" target="30">
                    <mxGeometry relative="1" as="geometry"/>
                </mxCell>
                <mxCell id="81" style="edgeStyle=none;html=1;strokeWidth=1;" edge="1" parent="1" source="76">
                    <mxGeometry relative="1" as="geometry">
                        <mxPoint x="590" y="640" as="targetPoint"/>
                    </mxGeometry>
                </mxCell>
                <mxCell id="76" value="リモートに&lt;br&gt;パケットを送信" style="whiteSpace=wrap;html=1;" vertex="1" parent="1">
                    <mxGeometry x="530" y="450" width="120" height="60" as="geometry"/>
                </mxCell>
                <mxCell id="82" value="handshake" style="whiteSpace=wrap;html=1;" vertex="1" parent="1">
                    <mxGeometry x="445" y="140" width="120" height="60" as="geometry"/>
                </mxCell>
            </root>
        </mxGraphModel>
    </diagram>
</mxfile>